<?xml version="1.0" encoding="UTF-8" standalone="no"?>
<!-- Created with Inkscape (http://www.inkscape.org/) -->

<svg
   width="113mm"
   height="152mm"
   viewBox="0 0 113.00001 152"
   version="1.1"
   id="svg9377"
   xml:space="preserve"
   inkscape:version="1.2.2 (b0a8486541, 2022-12-01)"
   sodipodi:docname="k4s.svg"
   xmlns:inkscape="http://www.inkscape.org/namespaces/inkscape"
   xmlns:sodipodi="http://sodipodi.sourceforge.net/DTD/sodipodi-0.dtd"
   xmlns="http://www.w3.org/2000/svg"
   xmlns:svg="http://www.w3.org/2000/svg"><sodipodi:namedview
     id="namedview9379"
     pagecolor="#505050"
     bordercolor="#eeeeee"
     borderopacity="1"
     inkscape:showpageshadow="0"
     inkscape:pageopacity="0"
     inkscape:pagecheckerboard="0"
     inkscape:deskcolor="#505050"
     inkscape:document-units="mm"
     showgrid="true"
     inkscape:zoom="1.6039963"
     inkscape:cx="314.83863"
     inkscape:cy="361.28513"
     inkscape:window-width="1918"
     inkscape:window-height="1028"
     inkscape:window-x="0"
     inkscape:window-y="0"
     inkscape:window-maximized="0"
     inkscape:current-layer="layer1"><inkscape:grid
       type="xygrid"
       id="grid22508"
       originx="0"
       originy="0" /></sodipodi:namedview><defs
     id="defs9374" /><g
     inkscape:label="Layer 1"
     inkscape:groupmode="layer"
     id="layer1"
     transform="translate(-30.347762,-16.39045)"><rect
       style="fill:#ffffff;fill-opacity:1;stroke:none;stroke-width:1.96816;stroke-linecap:square;paint-order:stroke fill markers"
       id="rect21870"
       width="113"
       height="152"
       x="30.347761"
       y="16.39045"
       ry="2.5492998e-06" /><g
       id="g12822"
       transform="matrix(0.98864922,0,0,0.98864922,2.4611375,2.3027111)"><path
         d="m 130.76909,40.049376 c -0.62922,-2.013524 -2.13938,-3.649514 -4.02705,-4.656264 L 88.359239,17.019666 c -1.006764,-0.503363 -2.139365,-0.629216 -3.146128,-0.629216 -1.006757,0 -2.139361,0 -3.146121,0.251682 L 43.684146,35.141407 c -1.887681,0.880921 -3.27198,2.516911 -3.775362,4.656288 l -9.438405,41.403032 c -0.377534,2.139364 0.125853,4.278721 1.384301,6.040552 l 26.553377,32.845601 c 1.510144,1.51014 3.649516,2.51692 5.788886,2.64277 h 42.283987 c 2.26522,0.25168 4.40459,-0.75509 5.78889,-2.64277 l 26.55336,-32.845601 c 1.25846,-1.761831 1.76185,-3.901188 1.51017,-6.040552 z"
         id="path10349"
         style="fill:#326de6;stroke-width:1.25845" /><path
         d="m 124.85437,79.564743 v 0 c -0.12574,0 -0.25171,0 -0.25171,-0.12574 0,-0.125727 -0.25168,-0.125727 -0.50338,-0.125727 -0.50337,-0.12574 -1.00675,-0.12574 -1.51014,-0.12574 -0.25168,0 -0.50339,0 -0.75507,-0.12573 h -0.12573 c -1.3843,-0.12574 -2.89445,-0.377537 -4.27875,-0.755067 -0.37754,-0.125743 -0.75507,-0.503393 -0.88092,-0.880923 0.12586,0 0,0 0,0 v 0 l -1.00676,-0.251677 c 0.50338,-3.649508 0.25169,-7.424856 -0.50338,-11.074364 -0.88092,-3.649501 -2.39106,-7.173179 -4.40459,-10.31929 l 0.75507,-0.755067 v 0 -0.125737 c 0,-0.37753 0.12586,-0.880923 0.37754,-1.132603 1.13261,-1.006764 2.26522,-1.761831 3.52367,-2.516895 v 0 c 0.25169,-0.12573 0.50338,-0.25168 0.75507,-0.37753 0.50338,-0.251707 0.88092,-0.503387 1.3843,-0.755067 0.12585,-0.125735 0.25169,-0.125735 0.37754,-0.251705 0.12585,-0.125735 0,-0.125735 0,-0.251682 v 0 c 1.13261,-0.880921 1.3843,-2.391059 0.50338,-3.523662 -0.37754,-0.503386 -1.13261,-0.880921 -1.76184,-0.880921 -0.62922,0 -1.25845,0.251682 -1.76183,0.629216 v 0 l -0.12585,0.125735 c -0.12586,0.125735 -0.25169,0.251682 -0.37754,0.251682 -0.37754,0.377534 -0.75507,0.755068 -1.00676,1.132603 -0.12586,0.251705 -0.37754,0.377558 -0.50338,0.503387 v 0 c -0.88092,1.006774 -2.01353,2.013524 -3.14614,2.768597 -0.25169,0.12573 -0.50338,0.251697 -0.75507,0.251697 -0.12585,0 -0.37754,0 -0.50338,-0.125727 h -0.12586 l -1.00676,0.629234 c -1.00676,-1.006774 -2.13937,-2.013523 -3.14613,-3.020297 C 99.433687,44.706229 93.644815,42.441 87.730105,41.811784 l -0.12585,-1.006774 v 0 0.125735 c -0.377527,-0.251682 -0.503377,-0.629216 -0.629217,-1.00675 0,-1.384308 0,-2.768617 0.25169,-4.278754 v -0.125735 c 0,-0.251681 0.125847,-0.503363 0.125847,-0.755068 0.12585,-0.503387 0.12585,-1.006751 0.25169,-1.510138 v -0.755068 0 c 0.12585,-1.258456 -0.880914,-2.516911 -2.139364,-2.642764 -0.75507,-0.125735 -1.510144,0.251705 -2.139361,0.880921 -0.503387,0.503387 -0.755077,1.132603 -0.755077,1.761843 v 0 0.629216 c 0,0.503387 0.12586,1.006774 0.25169,1.510137 0.12586,0.251705 0.12586,0.503387 0.12586,0.755092 v 0.125735 c 0.251687,1.384308 0.251687,2.768616 0.251687,4.278754 -0.12585,0.377534 -0.251687,0.755068 -0.629227,1.00675 v 0.251705 0 l -0.125852,1.00675 c -1.384299,0.125735 -2.768597,0.377535 -4.278742,0.62924 -5.914734,1.258456 -11.326085,4.404583 -15.478984,8.809159 l -0.755071,-0.503357 h -0.125853 c -0.125852,0 -0.251691,0.12573 -0.503382,0.12573 -0.251691,0 -0.503382,-0.12573 -0.755073,-0.25168 -1.132608,-0.880918 -2.265215,-1.887692 -3.146134,-2.894442 v 0 c -0.125853,-0.251682 -0.377537,-0.377535 -0.50338,-0.503387 -0.377537,-0.377535 -0.629228,-0.755069 -1.006765,-1.132603 -0.125852,-0.125735 -0.251691,-0.125735 -0.377536,-0.251682 -0.125853,-0.125735 -0.125853,-0.125735 -0.125853,-0.125735 v 0 c -0.50338,-0.377534 -1.132607,-0.629239 -1.761835,-0.629239 -0.755071,0 -1.384299,0.251705 -1.761836,0.880921 -0.755071,1.132603 -0.503382,2.642764 0.503383,3.523685 v 0 c 0.125852,0 0.125852,0.125735 0.125852,0.125735 0,0 0.251691,0.251705 0.377537,0.251705 0.377537,0.251685 0.880916,0.503365 1.384299,0.755062 0.251691,0.12574 0.503382,0.25169 0.755073,0.37754 v 0 c 1.258453,0.755064 2.516906,1.510131 3.523671,2.516885 0.251689,0.25169 0.50338,0.755073 0.377534,1.132613 v -0.12574 0 l 0.755073,0.755087 c -0.125852,0.251687 -0.251691,0.377537 -0.377536,0.629214 -3.901208,6.166415 -5.537198,13.465411 -4.404588,20.638587 l -1.006764,0.25168 v 0 c 0,0.12574 -0.125853,0.12574 -0.125853,0.12574 -0.125852,0.377527 -0.503382,0.629207 -0.880916,0.880917 -1.384301,0.377533 -2.7686,0.629223 -4.278744,0.755073 v 0 c -0.251691,0 -0.503382,0 -0.755074,0.125727 -0.503379,0 -1.006762,0.12574 -1.510144,0.12574 -0.125852,0 -0.251691,0.12573 -0.50338,0.12573 -0.125852,0 -0.125852,0 -0.251691,0.12574 v 0 c -1.384301,0.251697 -2.265217,1.510151 -2.013526,2.894431 0,0 0,0 0,0 0.251691,1.132624 1.384298,1.887691 2.516906,1.761841 0.251691,0 0.377537,0 0.629228,-0.12574 v 0 c 0.125852,0 0.125852,0 0.125852,-0.12573 0,-0.125737 0.377537,0 0.503383,0 0.503379,-0.125737 1.006762,-0.377537 1.384298,-0.503387 0.251691,-0.12574 0.503383,-0.251677 0.755074,-0.251677 h 0.125852 c 1.384299,-0.503387 2.642752,-0.880917 4.152896,-1.132624 h 0.125853 c 0.377537,0 0.755073,0.12574 1.006765,0.377537 0.125852,0 0.125852,0.12573 0.125852,0.12573 v 0 l 1.132608,-0.12573 c 1.887681,5.788869 5.411352,10.948524 10.319321,14.723872 1.13261,0.880897 2.139372,1.63599 3.397825,2.265207 l -0.629204,0.880724 v 0 c 0,0.12574 0.125853,0.12574 0.125853,0.12574 0.251691,0.37753 0.251691,0.88089 0.125852,1.25843 -0.503382,1.25845 -1.258455,2.51691 -2.013526,3.64954 v 0.12573 c -0.125853,0.25171 -0.251691,0.37754 -0.503382,0.62924 -0.251692,0.25168 -0.503383,0.75507 -0.880917,1.25846 -0.125853,0.12573 -0.125853,0.25168 -0.251691,0.37753 0,0 0,0.12574 -0.125853,0.12574 v 0 c -0.629227,1.25845 -0.125852,2.76861 1.006762,3.39783 0.251692,0.12597 0.629228,0.2517 0.880919,0.2517 1.006762,0 1.887681,-0.62924 2.391061,-1.51016 v 0 c 0,0 0,-0.12573 0.125853,-0.12573 0,-0.12574 0.125852,-0.25171 0.251691,-0.37756 0.125852,-0.50336 0.377536,-0.8809 0.503382,-1.38429 l 0.251691,-0.75506 v 0 c 0.377537,-1.38431 1.006762,-2.64277 1.63599,-3.90122 0.251691,-0.37754 0.629228,-0.62922 1.006762,-0.75507 0.125853,0 0.125853,0 0.125853,-0.12574 v 0 l 0.503382,-1.00675 c 3.523671,1.38429 7.173187,2.01353 10.948537,2.01353 2.265214,0 4.530422,-0.25171 6.795617,-0.88092 1.384297,-0.25169 2.768594,-0.75507 4.027038,-1.13261 l 0.50339,0.88092 v 0 c 0.12585,0 0.12585,0 0.12585,0.12574 0.377533,0.12573 0.75507,0.37753 1.00676,0.75507 0.629224,1.25845 1.258441,2.51691 1.635981,3.90122 v 0.12573 l 0.25169,0.75507 c 0.12585,0.50339 0.25169,1.00675 0.503383,1.38429 0.12586,0.12573 0.12586,0.2517 0.25169,0.37755 0,0 0,0.12574 0.12586,0.12574 v 0 c 0.50338,0.88092 1.3843,1.51016 2.39106,1.51016 0.37753,0 0.62923,-0.12574 1.00676,-0.25171 0.50338,-0.25168 1.00676,-0.75507 1.13261,-1.38428 0.12585,-0.62924 0.12585,-1.25846 -0.12585,-1.8877 v 0 c 0,-0.12573 -0.12586,-0.12573 -0.12586,-0.12573 0,-0.12574 -0.12585,-0.25168 -0.25169,-0.37754 -0.25169,-0.50336 -0.50338,-0.88092 -0.88091,-1.25845 -0.12586,-0.25168 -0.25169,-0.37754 -0.50339,-0.62922 v -0.25168 c -0.88091,-1.13263 -1.51014,-2.39108 -2.01352,-3.64954 -0.12585,-0.37753 -0.12585,-0.88089 0.12585,-1.25843 0,-0.12573 0.12585,-0.12573 0.12585,-0.12573 v 0 l -0.37753,-1.006774 c 6.41811,-3.901175 11.32608,-9.94173 13.5913,-17.114906 l 1.00676,0.125737 v 0 c 0.12586,0 0.12586,-0.125737 0.12586,-0.125737 0.25169,-0.25168 0.62922,-0.37753 1.00676,-0.37753 h 0.12585 c 1.3843,0.25168 2.7686,0.629207 4.02706,1.132594 h 0.12585 c 0.2517,0.12573 0.50338,0.2517 0.75509,0.2517 0.50336,0.251687 0.8809,0.503367 1.38428,0.629217 0.12574,0 0.25171,0.125737 0.50339,0.125737 0.12574,0 0.12574,0 0.25168,0.12573 v 0 c 0.25171,0.12574 0.37754,0.12574 0.62924,0.12574 1.13261,0 2.13938,-0.755067 2.51691,-1.761841 -0.12573,-1.38428 -1.13262,-2.391054 -2.26523,-2.642734 z m -36.369291,-3.901208 -3.397808,1.635981 -3.397817,-1.635981 -0.880919,-3.649508 2.391055,-3.020261 h 3.775358 l 2.391048,3.020261 z m 20.512761,-8.179929 c 0.62923,2.642754 0.75507,5.285488 0.50338,7.928252 L 97.545916,72.014027 v 0 c -1.13261,-0.251677 -1.76184,-1.38428 -1.51015,-2.516904 0.12586,-0.377527 0.2517,-0.629207 0.50339,-0.880884 l 9.438394,-8.557489 c 1.3843,2.265227 2.39106,4.782131 3.02029,7.424856 z m -6.79565,-12.081108 -10.319299,7.299006 c -0.880914,0.503387 -2.139358,0.377537 -2.768585,-0.503387 -0.251687,-0.25168 -0.377537,-0.503377 -0.377537,-0.880914 L 87.981702,48.60686 c 5.537173,0.629239 10.445128,3.02029 14.220488,6.795638 z m -22.777954,-6.418104 2.516909,-0.503363 -0.629228,12.584492 v 0 c 0,1.132594 -1.006765,2.013518 -2.139372,2.013518 -0.377537,0 -0.629228,-0.125737 -1.006762,-0.251687 L 67.720616,55.402498 c 3.27198,-3.146111 7.29903,-5.41133 11.70362,-6.418104 z M 64.0711,60.05875 l 9.312556,8.305779 v 0 c 0.880919,0.755067 1.006765,2.013508 0.251692,2.894438 C 73.383656,71.6365 73.131965,71.76235 72.628585,71.8882 L 60.421583,75.411858 C 60.044047,70.12636 61.3025,64.715031 64.0711,60.05875 Z m -2.139372,21.267827 12.458693,-2.139371 c 1.006762,0 2.013526,0.629217 2.139372,1.635981 0.125853,0.37754 0.125853,0.880923 -0.125853,1.25846 v 0 L 71.621814,93.659388 C 67.217227,90.764947 63.693556,86.360362 61.93172,81.326577 Z m 28.566869,15.604772 c -1.761828,0.37754 -3.523649,0.629217 -5.411326,0.629217 -2.642747,0 -5.411344,-0.503387 -7.928253,-1.258444 L 83.32544,85.101905 c 0.629227,-0.75507 1.635981,-1.006747 2.516904,-0.50336 0.37753,0.25168 0.629217,0.50336 1.006754,0.880903 v 0 l 6.040547,10.948524 c -0.755067,0.12573 -1.510131,0.25168 -2.391048,0.503377 z M 105.85171,85.982825 c -1.88768,3.020291 -4.53044,5.663025 -7.550727,7.550716 L 93.393025,81.70411 c -0.25169,-1.006773 0.25169,-2.013517 1.13261,-2.391074 0.377537,-0.12573 0.755064,-0.25168 1.132604,-0.25168 l 12.584531,2.139371 c -0.62923,1.761837 -1.3843,3.397818 -2.39106,4.782098 z"
         id="path10351"
         style="fill:#ffffff;stroke-width:1.25845" /></g><path
       d="m 73.857749,165.36594 c -1.22928,0.32069 -2.512006,0.58792 -3.794732,0.74826 -1.603408,0.26724 -3.260263,0.37413 -4.863671,0.37413 -1.496514,0.0534 -2.939581,-0.21379 -4.329201,-0.69481 -1.068939,-0.42758 -1.977537,-1.06894 -2.725794,-1.92409 -0.69481,-0.9086 -1.175832,-1.92409 -1.443067,-3.04647 -0.320681,-1.22928 -0.427575,-2.56546 -0.427575,-3.84818 v -11.27726 h 5.772268 v 10.63594 c 0,1.87065 0.267235,3.20682 0.748257,4.00852 0.481023,0.80171 1.38962,1.22928 2.725794,1.22928 0.427575,0 0.855151,0 1.336173,-0.0534 0.481022,-0.0534 0.855151,-0.0534 1.229279,-0.16034 v -15.66 h 5.772269 v 19.66847 M 40.185993,153.0732 c 0.587916,-0.64136 1.122385,-1.28273 1.763749,-1.92409 0.587916,-0.69481 1.175832,-1.33617 1.763748,-1.97754 0.587916,-0.69481 1.122386,-1.28272 1.603408,-1.87064 0.481022,-0.58791 0.962045,-1.12238 1.336173,-1.54996 h 6.841207 c -1.38962,1.54996 -2.725793,3.09992 -4.008519,4.54299 -1.336174,1.44307 -2.725794,2.93958 -4.275755,4.4361 0.855151,0.8017 1.656855,1.6034 2.405112,2.512 0.801704,0.96205 1.603408,1.92409 2.405112,2.99303 0.748257,1.01549 1.496514,2.08443 2.137877,3.09992 0.641363,1.01549 1.175833,1.97754 1.603408,2.83269 h -6.627419 c -0.427576,-0.69481 -0.908598,-1.38962 -1.443067,-2.19133 -0.53447,-0.8017 -1.122386,-1.6034 -1.656855,-2.45855 -0.587916,-0.80171 -1.22928,-1.60341 -1.92409,-2.35167 -0.587916,-0.69481 -1.229279,-1.33617 -1.924089,-1.87064 v 8.92564 h -5.772269 v -29.28892 l 5.772269,-0.9086 v 17.04957 m 91.182187,8.78999 c 0.74825,0.0534 1.54996,-0.0534 2.24477,-0.32068 0.42757,-0.21379 0.69481,-0.69481 0.64136,-1.17583 -0.0534,-0.53447 -0.37413,-1.01549 -0.85515,-1.17584 -0.8017,-0.48102 -1.7103,-0.90859 -2.6189,-1.17583 -0.9086,-0.32068 -1.7103,-0.69481 -2.45856,-1.06894 -0.69481,-0.32068 -1.28272,-0.74825 -1.87064,-1.28272 -0.53447,-0.53447 -0.9086,-1.12239 -1.17583,-1.8172 -0.32068,-0.8017 -0.42758,-1.65685 -0.42758,-2.512 -0.0534,-1.76375 0.74826,-3.47405 2.13788,-4.54299 1.44307,-1.12239 3.36715,-1.65686 5.82571,-1.65686 1.17584,0 2.40512,0.1069 3.58095,0.37413 0.9086,0.16034 1.81719,0.37413 2.72579,0.69481 l -1.01549,4.54299 c -0.74826,-0.26723 -1.44307,-0.42758 -2.19132,-0.64136 -0.85516,-0.21379 -1.76375,-0.26724 -2.6189,-0.26724 -1.8172,0 -2.7258,0.48102 -2.7258,1.49652 0,0.21378 0.0534,0.42757 0.1069,0.64136 0.10689,0.21379 0.26723,0.37413 0.48102,0.53447 0.21379,0.16034 0.53447,0.32068 0.9086,0.53447 0.37413,0.21379 0.90859,0.42757 1.54996,0.64136 1.06894,0.37413 2.13787,0.85515 3.09992,1.38962 0.74826,0.37413 1.38962,0.85515 1.92409,1.49652 0.48102,0.48102 0.8017,1.06893 1.01549,1.76374 0.21379,0.74826 0.32068,1.49652 0.32068,2.24477 0.1069,1.8172 -0.74825,3.58095 -2.29822,4.59644 -1.49651,1.01549 -3.63439,1.54996 -6.41363,1.54996 -1.54996,0.0534 -3.04647,-0.10689 -4.54299,-0.48102 -0.85515,-0.21379 -1.65685,-0.48102 -2.45856,-0.74826 l 0.96205,-4.70333 c 0.96204,0.37413 1.97754,0.69481 2.99303,0.9086 1.06894,0.0534 2.08443,0.16034 3.15337,0.16034 m -29.44926,-5.87916 c -0.0534,-1.60341 0.26723,-3.20682 0.8017,-4.70333 0.48102,-1.28273 1.22928,-2.40511 2.19133,-3.4206 0.90859,-0.9086 1.92409,-1.60341 3.09992,-2.03099 1.17583,-0.48102 2.40511,-0.69481 3.63439,-0.69481 2.88613,0 5.18435,0.9086 6.84121,2.67235 1.65685,1.76375 2.512,4.38265 2.512,7.80325 0,0.32068 0,0.69481 -0.0534,1.12239 0,0.42757 -0.0534,0.74825 -0.0534,1.06893 h -13.04114 c 0.10689,1.12239 0.69481,2.19133 1.65685,2.83269 1.17583,0.74826 2.56545,1.12239 3.95508,1.06894 1.01549,0 2.08443,-0.10689 3.09992,-0.26723 0.85515,-0.16034 1.7103,-0.42758 2.512,-0.80171 l 0.80171,4.70333 c -0.37413,0.21379 -0.80171,0.32068 -1.22928,0.48102 -0.58792,0.16034 -1.17584,0.32069 -1.76375,0.37413 -0.64136,0.1069 -1.28273,0.21379 -2.03098,0.32068 -0.69481,0.0534 -1.44307,0.1069 -2.19133,0.1069 -1.65685,0.0534 -3.26026,-0.21379 -4.81022,-0.80171 -1.28273,-0.48102 -2.40511,-1.22928 -3.36716,-2.19132 -0.9086,-0.96204 -1.54996,-2.13788 -1.97754,-3.36716 -0.37412,-1.44306 -0.58791,-2.88613 -0.58791,-4.27575 m 13.52207,-2.19133 c 0,-0.48102 -0.10689,-0.96204 -0.26723,-1.44306 -0.1069,-0.48102 -0.37413,-0.85515 -0.64137,-1.22928 -0.32068,-0.37413 -0.69481,-0.69481 -1.12238,-0.9086 -0.53447,-0.26723 -1.06894,-0.37413 -1.65686,-0.37413 -0.58791,0 -1.12238,0.1069 -1.65685,0.37413 -0.42758,0.21379 -0.85515,0.48102 -1.17583,0.85515 -0.32069,0.37413 -0.58792,0.80171 -0.74826,1.28273 -0.16034,0.48102 -0.26724,0.96204 -0.32068,1.44306 h 7.58946 m -38.177859,-13.25483 5.77227,-0.9086 v 5.98605 h 6.9481 v 4.81023 h -6.9481 v 7.16189 c -0.0534,1.01549 0.16034,2.03098 0.64136,2.88613 0.42757,0.69481 1.28273,1.06894 2.6189,1.06894 0.64136,0 1.28273,-0.0535 1.87064,-0.16034 0.64136,-0.10689 1.22928,-0.26724 1.8172,-0.48102 l 0.8017,4.48954 c -0.74826,0.32068 -1.54996,0.53447 -2.35166,0.74826 -1.0155,0.21378 -2.08443,0.32068 -3.15337,0.32068 -1.33618,0.0534 -2.67235,-0.16034 -3.90163,-0.64137 -0.96204,-0.37412 -1.81719,-1.01549 -2.45856,-1.76374 -0.64136,-0.80171 -1.06894,-1.76375 -1.33617,-2.77924 -0.26724,-1.17584 -0.37413,-2.40512 -0.32068,-3.58095 v -17.15646 m 21.715426,25.66731 c -1.22928,0.32069 -4.15958,0.0989 -5.442306,0.25925 -0.146858,-5.1846 -0.329963,-14.33779 -0.329963,-20.43823 h 5.772269"
       id="path3003"
       style="fill:#000000;stroke-width:0.534469"
       sodipodi:nodetypes="ccccccsccsssscccccccsccccccsccsccccccccccccccccccsccccsscsscccccccsccccccccssscccccccccccccccccccsssssccccccccccscccccccccccccc" /><g
       id="g12818"
       transform="translate(1.5875,1.5875)"><ellipse
         style="fill:#ff6600;stroke:#222222;stroke-width:0.0703247;stroke-linecap:square;paint-order:stroke fill markers"
         id="path111"
         cx="94.360275"
         cy="138.58035"
         rx="4.3198152"
         ry="4.0435257" /><path
         style="fill:#008000;fill-opacity:1;stroke:#000000;stroke-width:0.0232584px;stroke-linecap:butt;stroke-linejoin:miter;stroke-opacity:1"
         d="m 94.74218,134.02691 c 1.177302,2.3603 3.769409,2.26728 4.467616,1.39291 0.535727,-1.17201 -4.152469,-2.16944 -4.467616,-1.39291 z"
         id="path1892-3"
         sodipodi:nodetypes="ccc" /><path
         style="fill:none;fill-opacity:1;stroke:#000000;stroke-width:0.172736;stroke-linecap:butt;stroke-linejoin:miter;stroke-dasharray:none;stroke-opacity:1"
         d="m 94.669239,134.52653 c 0,-0.18582 0,-0.37163 0,-0.55744 0,-0.0429 0,-0.0857 0,-0.12863 0,-0.0101 -0.0019,-0.0204 0,-0.0303 0.0017,-0.009 0.02996,-0.0857 0.03111,-0.0882 0.182514,-0.39755 -0.147577,0.35622 0.18618,-0.33515 0.04961,-0.10277 0.08936,-0.21006 0.130331,-0.31657 0.0081,-0.021 0.06569,-0.18413 0.07448,-0.24153 0.004,-0.026 0,-0.0527 0,-0.079"
         id="path4984" /><path
         style="fill:#008000;fill-opacity:1;stroke:#000000;stroke-width:0.0232584px;stroke-linecap:butt;stroke-linejoin:miter;stroke-opacity:1"
         d="m 90.253277,134.90321 c 0.958109,0.86533 3.592464,0.38835 4.346114,-0.87343 -0.966381,-2.52832 -4.271326,0.13357 -4.346114,0.87343 z"
         id="path1892"
         sodipodi:nodetypes="ccc" /></g><g
       id="g12818-6"
       transform="translate(-20.717619,-36.971207)"><ellipse
         style="fill:#ff6600;stroke:#222222;stroke-width:0.0703247;stroke-linecap:square;paint-order:stroke fill markers"
         id="path111-7"
         cx="94.360275"
         cy="138.58035"
         rx="4.3198152"
         ry="4.0435257" /><path
         style="fill:#008000;fill-opacity:1;stroke:#000000;stroke-width:0.0232584px;stroke-linecap:butt;stroke-linejoin:miter;stroke-opacity:1"
         d="m 94.74218,134.02691 c 1.177302,2.3603 3.769409,2.26728 4.467616,1.39291 0.535727,-1.17201 -4.152469,-2.16944 -4.467616,-1.39291 z"
         id="path1892-3-5"
         sodipodi:nodetypes="ccc" /><path
         style="fill:none;fill-opacity:1;stroke:#000000;stroke-width:0.172736;stroke-linecap:butt;stroke-linejoin:miter;stroke-dasharray:none;stroke-opacity:1"
         d="m 94.669239,134.52653 c 0,-0.18582 0,-0.37163 0,-0.55744 0,-0.0429 0,-0.0857 0,-0.12863 0,-0.0101 -0.0019,-0.0204 0,-0.0303 0.0017,-0.009 0.02996,-0.0857 0.03111,-0.0882 0.182514,-0.39755 -0.147577,0.35622 0.18618,-0.33515 0.04961,-0.10277 0.08936,-0.21006 0.130331,-0.31657 0.0081,-0.021 0.06569,-0.18413 0.07448,-0.24153 0.004,-0.026 0,-0.0527 0,-0.079"
         id="path4984-3" /><path
         style="fill:#008000;fill-opacity:1;stroke:#000000;stroke-width:0.0232584px;stroke-linecap:butt;stroke-linejoin:miter;stroke-opacity:1"
         d="m 90.253277,134.90321 c 0.958109,0.86533 3.592464,0.38835 4.346114,-0.87343 -0.966381,-2.52832 -4.271326,0.13357 -4.346114,0.87343 z"
         id="path1892-5"
         sodipodi:nodetypes="ccc" /></g><g
       id="g12818-62"
       transform="translate(-34.783821,-55.346237)"><ellipse
         style="fill:#ff6600;stroke:#222222;stroke-width:0.0703247;stroke-linecap:square;paint-order:stroke fill markers"
         id="path111-9"
         cx="94.360275"
         cy="138.58035"
         rx="4.3198152"
         ry="4.0435257" /><path
         style="fill:#008000;fill-opacity:1;stroke:#000000;stroke-width:0.0232584px;stroke-linecap:butt;stroke-linejoin:miter;stroke-opacity:1"
         d="m 94.74218,134.02691 c 1.177302,2.3603 3.769409,2.26728 4.467616,1.39291 0.535727,-1.17201 -4.152469,-2.16944 -4.467616,-1.39291 z"
         id="path1892-3-1"
         sodipodi:nodetypes="ccc" /><path
         style="fill:none;fill-opacity:1;stroke:#000000;stroke-width:0.172736;stroke-linecap:butt;stroke-linejoin:miter;stroke-dasharray:none;stroke-opacity:1"
         d="m 94.669239,134.52653 c 0,-0.18582 0,-0.37163 0,-0.55744 0,-0.0429 0,-0.0857 0,-0.12863 0,-0.0101 -0.0019,-0.0204 0,-0.0303 0.0017,-0.009 0.02996,-0.0857 0.03111,-0.0882 0.182514,-0.39755 -0.147577,0.35622 0.18618,-0.33515 0.04961,-0.10277 0.08936,-0.21006 0.130331,-0.31657 0.0081,-0.021 0.06569,-0.18413 0.07448,-0.24153 0.004,-0.026 0,-0.0527 0,-0.079"
         id="path4984-2" /><path
         style="fill:#008000;fill-opacity:1;stroke:#000000;stroke-width:0.0232584px;stroke-linecap:butt;stroke-linejoin:miter;stroke-opacity:1"
         d="m 90.253277,134.90321 c 0.958109,0.86533 3.592464,0.38835 4.346114,-0.87343 -0.966381,-2.52832 -4.271326,0.13357 -4.346114,0.87343 z"
         id="path1892-7"
         sodipodi:nodetypes="ccc" /></g><g
       id="g12818-0"
       transform="translate(-30.194409,-79.25624)"><ellipse
         style="fill:#ff6600;stroke:#222222;stroke-width:0.0703247;stroke-linecap:square;paint-order:stroke fill markers"
         id="path111-93"
         cx="94.360275"
         cy="138.58035"
         rx="4.3198152"
         ry="4.0435257" /><path
         style="fill:#008000;fill-opacity:1;stroke:#000000;stroke-width:0.0232584px;stroke-linecap:butt;stroke-linejoin:miter;stroke-opacity:1"
         d="m 94.74218,134.02691 c 1.177302,2.3603 3.769409,2.26728 4.467616,1.39291 0.535727,-1.17201 -4.152469,-2.16944 -4.467616,-1.39291 z"
         id="path1892-3-6"
         sodipodi:nodetypes="ccc" /><path
         style="fill:none;fill-opacity:1;stroke:#000000;stroke-width:0.172736;stroke-linecap:butt;stroke-linejoin:miter;stroke-dasharray:none;stroke-opacity:1"
         d="m 94.669239,134.52653 c 0,-0.18582 0,-0.37163 0,-0.55744 0,-0.0429 0,-0.0857 0,-0.12863 0,-0.0101 -0.0019,-0.0204 0,-0.0303 0.0017,-0.009 0.02996,-0.0857 0.03111,-0.0882 0.182514,-0.39755 -0.147577,0.35622 0.18618,-0.33515 0.04961,-0.10277 0.08936,-0.21006 0.130331,-0.31657 0.0081,-0.021 0.06569,-0.18413 0.07448,-0.24153 0.004,-0.026 0,-0.0527 0,-0.079"
         id="path4984-0" /><path
         style="fill:#008000;fill-opacity:1;stroke:#000000;stroke-width:0.0232584px;stroke-linecap:butt;stroke-linejoin:miter;stroke-opacity:1"
         d="m 90.253277,134.90321 c 0.958109,0.86533 3.592464,0.38835 4.346114,-0.87343 -0.966381,-2.52832 -4.271326,0.13357 -4.346114,0.87343 z"
         id="path1892-6"
         sodipodi:nodetypes="ccc" /></g><g
       id="g12818-2"
       transform="translate(-8.5017234,-89.998732)"><ellipse
         style="fill:#ff6600;stroke:#222222;stroke-width:0.0703247;stroke-linecap:square;paint-order:stroke fill markers"
         id="path111-6"
         cx="94.360275"
         cy="138.58035"
         rx="4.3198152"
         ry="4.0435257" /><path
         style="fill:#008000;fill-opacity:1;stroke:#000000;stroke-width:0.0232584px;stroke-linecap:butt;stroke-linejoin:miter;stroke-opacity:1"
         d="m 94.74218,134.02691 c 1.177302,2.3603 3.769409,2.26728 4.467616,1.39291 0.535727,-1.17201 -4.152469,-2.16944 -4.467616,-1.39291 z"
         id="path1892-3-18"
         sodipodi:nodetypes="ccc" /><path
         style="fill:none;fill-opacity:1;stroke:#000000;stroke-width:0.172736;stroke-linecap:butt;stroke-linejoin:miter;stroke-dasharray:none;stroke-opacity:1"
         d="m 94.669239,134.52653 c 0,-0.18582 0,-0.37163 0,-0.55744 0,-0.0429 0,-0.0857 0,-0.12863 0,-0.0101 -0.0019,-0.0204 0,-0.0303 0.0017,-0.009 0.02996,-0.0857 0.03111,-0.0882 0.182514,-0.39755 -0.147577,0.35622 0.18618,-0.33515 0.04961,-0.10277 0.08936,-0.21006 0.130331,-0.31657 0.0081,-0.021 0.06569,-0.18413 0.07448,-0.24153 0.004,-0.026 0,-0.0527 0,-0.079"
         id="path4984-7" /><path
         style="fill:#008000;fill-opacity:1;stroke:#000000;stroke-width:0.0232584px;stroke-linecap:butt;stroke-linejoin:miter;stroke-opacity:1"
         d="m 90.253277,134.90321 c 0.958109,0.86533 3.592464,0.38835 4.346114,-0.87343 -0.966381,-2.52832 -4.271326,0.13357 -4.346114,0.87343 z"
         id="path1892-9"
         sodipodi:nodetypes="ccc" /></g><g
       id="g12818-20"
       transform="translate(13.486392,-78.886491)"><ellipse
         style="fill:#ff6600;stroke:#222222;stroke-width:0.0703247;stroke-linecap:square;paint-order:stroke fill markers"
         id="path111-2"
         cx="94.360275"
         cy="138.58035"
         rx="4.3198152"
         ry="4.0435257" /><path
         style="fill:#008000;fill-opacity:1;stroke:#000000;stroke-width:0.0232584px;stroke-linecap:butt;stroke-linejoin:miter;stroke-opacity:1"
         d="m 94.74218,134.02691 c 1.177302,2.3603 3.769409,2.26728 4.467616,1.39291 0.535727,-1.17201 -4.152469,-2.16944 -4.467616,-1.39291 z"
         id="path1892-3-3"
         sodipodi:nodetypes="ccc" /><path
         style="fill:none;fill-opacity:1;stroke:#000000;stroke-width:0.172736;stroke-linecap:butt;stroke-linejoin:miter;stroke-dasharray:none;stroke-opacity:1"
         d="m 94.669239,134.52653 c 0,-0.18582 0,-0.37163 0,-0.55744 0,-0.0429 0,-0.0857 0,-0.12863 0,-0.0101 -0.0019,-0.0204 0,-0.0303 0.0017,-0.009 0.02996,-0.0857 0.03111,-0.0882 0.182514,-0.39755 -0.147577,0.35622 0.18618,-0.33515 0.04961,-0.10277 0.08936,-0.21006 0.130331,-0.31657 0.0081,-0.021 0.06569,-0.18413 0.07448,-0.24153 0.004,-0.026 0,-0.0527 0,-0.079"
         id="path4984-75" /><path
         style="fill:#008000;fill-opacity:1;stroke:#000000;stroke-width:0.0232584px;stroke-linecap:butt;stroke-linejoin:miter;stroke-opacity:1"
         d="m 90.253277,134.90321 c 0.958109,0.86533 3.592464,0.38835 4.346114,-0.87343 -0.966381,-2.52832 -4.271326,0.13357 -4.346114,0.87343 z"
         id="path1892-92"
         sodipodi:nodetypes="ccc" /></g><g
       id="g12818-28"
       transform="translate(18.338322,-55.87812)"><ellipse
         style="fill:#ff6600;stroke:#222222;stroke-width:0.0703247;stroke-linecap:square;paint-order:stroke fill markers"
         id="path111-97"
         cx="94.360275"
         cy="138.58035"
         rx="4.3198152"
         ry="4.0435257" /><path
         style="fill:#008000;fill-opacity:1;stroke:#000000;stroke-width:0.0232584px;stroke-linecap:butt;stroke-linejoin:miter;stroke-opacity:1"
         d="m 94.74218,134.02691 c 1.177302,2.3603 3.769409,2.26728 4.467616,1.39291 0.535727,-1.17201 -4.152469,-2.16944 -4.467616,-1.39291 z"
         id="path1892-3-36"
         sodipodi:nodetypes="ccc" /><path
         style="fill:none;fill-opacity:1;stroke:#000000;stroke-width:0.172736;stroke-linecap:butt;stroke-linejoin:miter;stroke-dasharray:none;stroke-opacity:1"
         d="m 94.669239,134.52653 c 0,-0.18582 0,-0.37163 0,-0.55744 0,-0.0429 0,-0.0857 0,-0.12863 0,-0.0101 -0.0019,-0.0204 0,-0.0303 0.0017,-0.009 0.02996,-0.0857 0.03111,-0.0882 0.182514,-0.39755 -0.147577,0.35622 0.18618,-0.33515 0.04961,-0.10277 0.08936,-0.21006 0.130331,-0.31657 0.0081,-0.021 0.06569,-0.18413 0.07448,-0.24153 0.004,-0.026 0,-0.0527 0,-0.079"
         id="path4984-1" /><path
         style="fill:#008000;fill-opacity:1;stroke:#000000;stroke-width:0.0232584px;stroke-linecap:butt;stroke-linejoin:miter;stroke-opacity:1"
         d="m 90.253277,134.90321 c 0.958109,0.86533 3.592464,0.38835 4.346114,-0.87343 -0.966381,-2.52832 -4.271326,0.13357 -4.346114,0.87343 z"
         id="path1892-2"
         sodipodi:nodetypes="ccc" /></g><g
       id="g12818-9"
       transform="translate(3.2901158,-37.297422)"><ellipse
         style="fill:#ff6600;stroke:#222222;stroke-width:0.0703247;stroke-linecap:square;paint-order:stroke fill markers"
         id="path111-3"
         cx="94.360275"
         cy="138.58035"
         rx="4.3198152"
         ry="4.0435257" /><path
         style="fill:#008000;fill-opacity:1;stroke:#000000;stroke-width:0.0232584px;stroke-linecap:butt;stroke-linejoin:miter;stroke-opacity:1"
         d="m 94.74218,134.02691 c 1.177302,2.3603 3.769409,2.26728 4.467616,1.39291 0.535727,-1.17201 -4.152469,-2.16944 -4.467616,-1.39291 z"
         id="path1892-3-19"
         sodipodi:nodetypes="ccc" /><path
         style="fill:none;fill-opacity:1;stroke:#000000;stroke-width:0.172736;stroke-linecap:butt;stroke-linejoin:miter;stroke-dasharray:none;stroke-opacity:1"
         d="m 94.669239,134.52653 c 0,-0.18582 0,-0.37163 0,-0.55744 0,-0.0429 0,-0.0857 0,-0.12863 0,-0.0101 -0.0019,-0.0204 0,-0.0303 0.0017,-0.009 0.02996,-0.0857 0.03111,-0.0882 0.182514,-0.39755 -0.147577,0.35622 0.18618,-0.33515 0.04961,-0.10277 0.08936,-0.21006 0.130331,-0.31657 0.0081,-0.021 0.06569,-0.18413 0.07448,-0.24153 0.004,-0.026 0,-0.0527 0,-0.079"
         id="path4984-4" /><path
         style="fill:#008000;fill-opacity:1;stroke:#000000;stroke-width:0.0232584px;stroke-linecap:butt;stroke-linejoin:miter;stroke-opacity:1"
         d="m 90.253277,134.90321 c 0.958109,0.86533 3.592464,0.38835 4.346114,-0.87343 -0.966381,-2.52832 -4.271326,0.13357 -4.346114,0.87343 z"
         id="path1892-78"
         sodipodi:nodetypes="ccc" /></g><g
       id="g21663"
       transform="matrix(2.9935265,0,0,2.9935265,-374.0943,-64.961419)"><path
         fill="currentColor"
         d="m 153.84442,45.300204 -3.32713,-1.864518 -0.005,0.962025 2.53603,1.410229 0.7964,-0.508 z"
         id="path21645"
         style="stroke-width:0.264583"
         sodipodi:nodetypes="cccccc" /><path
         fill="currentColor"
         d="m 151.43897,48.205068 2.05767,0.02963 4.06373,-2.534708 0.008,-0.972609 -5.0419,-2.786062 -2.00607,1.156494 -0.003,0.0299 3.85445,2.159 -1.79943,1.129506 -3.99918,-2.221177 -2.16641,1.216025 v 0.04577 z m 2.9681,0.735012 0.46223,-0.300037 2.93581,1.826683 0.47281,-0.289189 -2.94111,-1.837532 0.52467,-0.340254 2.93582,1.826683 0.47546,-0.289189 -2.94376,-1.837531 0.48101,-0.310621 2.94138,1.829329 0.47281,-0.28919 -2.9464,-1.842823 0.27702,-0.178329 0.005,-0.889 -3.91954,2.445279 -0.0161,0.01085 v 0.970227 l 0.31512,-0.205316 2.94111,1.829329 0.47307,-0.28919 z m -3.1287,0.502709 v -1.016 l -4.87098,-2.661709 v 0.932127 z m 0.27173,0.07541 1.80234,0.01376 v -1.029758 l -1.80208,-0.02699 v 1.042988 z"
         id="path21647"
         style="stroke-width:0.264583" /></g></g></svg>
